<svg width="32" height="32" viewBox="0 0 32 32" fill="none" xmlns="http://www.w3.org/2000/svg">
<path fill-rule="evenodd" clip-rule="evenodd" d="M5.33333 0C3.91885 0 2.56229 0.561903 1.5621 1.5621C0.561903 2.56229 0 3.91885 0 5.33333V26.6667C0 28.0812 0.561903 29.4377 1.5621 30.4379C2.56229 31.4381 3.91885 32 5.33333 32H26.6667C28.0812 32 29.4377 31.4381 30.4379 30.4379C31.4381 29.4377 32 28.0812 32 26.6667V5.33333C32 3.91885 31.4381 2.56229 30.4379 1.5621C29.4377 0.561903 28.0812 0 26.6667 0H5.33333ZM19.7707 19.0347L16 15.264L12.2293 19.0347C11.896 19.3682 11.4438 19.5557 10.9722 19.5559C10.5006 19.5561 10.0483 19.3689 9.71467 19.0356C9.38108 18.7022 9.19358 18.25 9.19342 17.7784C9.19325 17.3068 9.38043 16.8545 9.71378 16.5209L14.7431 11.4933C15.0765 11.1601 15.5286 10.9728 16 10.9728C16.4714 10.9728 16.9235 11.1601 17.2569 11.4933L22.2862 16.5209C22.6196 16.8545 22.8067 17.3068 22.8066 17.7784C22.8064 18.25 22.6189 18.7022 22.2853 19.0356C21.9517 19.3689 21.4994 19.5561 21.0278 19.5559C20.5562 19.5557 20.104 19.3682 19.7707 19.0347Z" fill="#F2F2F2"/>
</svg>
