<svg width="32" height="32" viewBox="0 0 32 32" fill="none" xmlns="http://www.w3.org/2000/svg">
<path d="M13.4064 5.60011C11.3364 5.60011 9.35125 6.4224 7.88757 7.88608C6.42389 9.34976 5.6016 11.3349 5.6016 13.4049C5.6016 15.4749 6.42389 17.46 7.88757 18.9237C9.35125 20.3874 11.3364 21.2097 13.4064 21.2097C15.4764 21.2097 17.4615 20.3874 18.9252 18.9237C20.3889 17.46 21.2112 15.4749 21.2112 13.4049C21.2112 11.3349 20.3889 9.34976 18.9252 7.88608C17.4615 6.4224 15.4764 5.60011 13.4064 5.60011ZM3 13.4049C3.00024 11.7488 3.39573 10.1167 4.1536 8.64416C4.91147 7.17165 6.00984 5.90128 7.35742 4.93863C8.705 3.97599 10.2629 3.34886 11.9016 3.10938C13.5403 2.8699 15.2124 3.02498 16.7792 3.56173C18.3459 4.09848 19.7618 5.00139 20.9094 6.19544C22.057 7.38949 22.903 8.84018 23.3771 10.427C23.8513 12.0137 23.9399 13.6907 23.6356 15.3186C23.3313 16.9465 22.6428 18.4783 21.6274 19.7866L28.6348 26.794C28.8718 27.0394 29.0029 27.3679 28.9999 27.709C28.997 28.0501 28.8602 28.3763 28.619 28.6175C28.3778 28.8587 28.0516 28.9955 27.7105 28.9985C27.3694 29.0014 27.0409 28.8703 26.7955 28.6334L19.7881 21.626C18.2499 22.8202 16.4074 23.5589 14.4701 23.7579C12.5329 23.957 10.5787 23.6085 8.82972 22.752C7.08074 21.8956 5.60718 20.5655 4.5766 18.9131C3.54602 17.2607 2.99978 15.3523 3 13.4049Z" fill="#F2F2F2"/>
</svg>
