<svg width="120" height="42" viewBox="0 0 120 42" fill="none" xmlns="http://www.w3.org/2000/svg">
<path d="M119.999 0L32.2091 37.38C24.9291 40.46 18.8141 42.005 13.8691 42.005C8.26907 42.005 4.20407 40.045 1.68407 36.12C0.0990692 33.6 -0.365931 30.405 0.284069 26.53C0.934069 22.655 2.66407 18.53 5.46407 14.14C7.79907 10.59 11.6241 5.925 16.9491 0.139999C15.1429 2.98333 13.8184 6.10529 13.0291 9.38C11.6291 15.355 12.8891 19.74 16.8091 22.54C18.6741 23.845 21.2391 24.5 24.5091 24.5C27.1191 24.5 30.0591 24.08 33.3291 23.24L119.999 0Z" fill="white"/>
</svg>
