<svg width="32" height="32" viewBox="0 0 32 32" fill="none" xmlns="http://www.w3.org/2000/svg">
<path d="M4.92047 24.6852H17.7281C17.6391 26.4022 16.5326 27.496 15.0063 27.496C13.4674 27.496 12.3736 26.4022 12.2718 24.6852H10.2878C10.3895 27.1271 12.31 29.2766 15.0063 29.2766C17.69 29.2766 19.6104 27.1271 19.7122 24.6852H25.0795C26.2876 24.6852 27 24.062 27 23.1462C27 21.8744 25.7154 20.7297 24.6089 19.5977C23.7694 18.7201 23.5405 16.9141 23.4515 15.4515C23.3497 10.4404 22.0652 7.19709 18.6693 5.97611C18.2496 4.32273 16.876 3 15.0063 3C13.124 3 11.7631 4.32273 11.3306 5.97611C7.94754 7.19709 6.6502 10.4404 6.5612 15.4515C6.45946 16.9141 6.24321 18.7201 5.39107 19.5977C4.29728 20.7297 3 21.8744 3 23.1462C3 24.062 3.72494 24.6852 4.92047 24.6852ZM5.48012 22.7646V22.6121C5.70907 22.2305 6.45946 21.4928 7.13355 20.7424C8.03653 19.7249 8.46898 18.097 8.58343 15.6041C8.68518 10.0588 10.3386 8.27818 12.5262 7.69314C12.8442 7.61684 13.0095 7.45149 13.0222 7.13349C13.0731 5.79806 13.8235 4.86963 15.0063 4.86963C16.1764 4.86963 16.9396 5.79806 16.9777 7.13349C16.9904 7.45149 17.1685 7.61684 17.4865 7.69314C19.6613 8.27818 21.3148 10.0588 21.4292 15.6041C21.531 18.097 21.9634 19.7249 22.8791 20.7424C23.5405 21.4928 24.3036 22.2305 24.5326 22.6121V22.7646H5.48012Z" fill="#F2F2F2"/>
</svg>
