<svg width="32" height="32" viewBox="0 0 32 32" fill="none" xmlns="http://www.w3.org/2000/svg">
<path d="M29.2975 26.25C27.5837 23.2421 24.9076 20.8985 21.7 19.5963C23.2951 18.3999 24.4734 16.732 25.0679 14.8288C25.6624 12.9257 25.643 10.8837 25.0125 8.99209C24.382 7.10052 23.1723 5.45529 21.5547 4.28945C19.9372 3.12361 17.9939 2.49625 16 2.49625C14.0061 2.49625 12.0628 3.12361 10.4453 4.28945C8.82773 5.45529 7.61803 7.10052 6.98751 8.99209C6.35699 10.8837 6.33761 12.9257 6.93212 14.8288C7.52663 16.732 8.70489 18.3999 10.3 19.5963C7.0924 20.8985 4.4163 23.2421 2.7025 26.25C2.59631 26.4208 2.52553 26.6111 2.49438 26.8098C2.46322 27.0084 2.47233 27.2113 2.52115 27.4064C2.56998 27.6014 2.65752 27.7847 2.77858 27.9453C2.89965 28.1058 3.05176 28.2404 3.22587 28.341C3.39998 28.4416 3.59254 28.5061 3.7921 28.5308C3.99166 28.5555 4.19415 28.5398 4.38752 28.4847C4.5809 28.4296 4.76122 28.3361 4.91776 28.2099C5.0743 28.0837 5.20386 27.9273 5.29875 27.75C7.56375 23.835 11.5637 21.5 16 21.5C20.4363 21.5 24.4362 23.8363 26.7013 27.75C26.9069 28.0807 27.2331 28.3184 27.6108 28.4129C27.9885 28.5075 28.3882 28.4514 28.7254 28.2566C29.0626 28.0618 29.3108 27.7436 29.4175 27.3691C29.5243 26.9946 29.4813 26.5933 29.2975 26.25ZM9.5 12C9.5 10.7144 9.88122 9.45771 10.5954 8.38879C11.3097 7.31987 12.3248 6.48675 13.5126 5.99478C14.7003 5.50281 16.0072 5.37409 17.2681 5.6249C18.529 5.8757 19.6872 6.49476 20.5962 7.40381C21.5052 8.31285 22.1243 9.47104 22.3751 10.7319C22.6259 11.9928 22.4972 13.2997 22.0052 14.4874C21.5132 15.6752 20.6801 16.6903 19.6112 17.4046C18.5423 18.1188 17.2856 18.5 16 18.5C14.2767 18.498 12.6246 17.8126 11.406 16.594C10.1874 15.3754 9.50198 13.7233 9.5 12Z" fill="#F2F2F2"/>
</svg>
