<svg width="120" height="38" viewBox="0 0 120 38" fill="none" xmlns="http://www.w3.org/2000/svg">
<path d="M84.0631 2.89146C84.0631 2.89146 81.8131 3.79146 79.1981 6.67146C76.5781 9.55646 75.0581 12.7965 76.1831 13.6565C76.6181 13.9865 77.6181 14.0515 79.4331 12.4065C81.1033 10.9545 82.4143 9.13528 83.2631 7.09146C84.4331 4.24146 84.0631 2.92646 84.0631 2.89146ZM98.3781 8.08146C95.4731 6.58646 93.3481 4.76146 91.1381 3.63146C89.0281 2.55146 87.6631 2.09646 85.9581 2.32646C85.7211 2.36878 85.4872 2.42725 85.2581 2.50146C85.2581 2.50146 86.1381 5.50146 82.6431 10.5365C79.1031 15.6465 75.8931 15.6115 74.9781 14.2065C74.0231 12.7265 75.2581 9.70646 77.3181 7.02146C79.4781 4.21146 83.2681 1.88146 83.2681 1.88146C83.2681 1.88146 82.0631 1.14146 79.0931 2.83146C76.1931 4.46146 71.2081 8.36646 66.5831 14.9465C61.9531 21.5265 61.0331 25.1465 60.3731 27.9965C59.7131 30.8465 60.3131 33.8965 63.4731 33.8965C66.6331 33.8965 70.3131 29.0765 71.3531 27.4015C73.2831 24.2815 74.5381 19.4965 71.9131 20.1515C70.6181 20.4765 69.5731 21.9065 68.9131 23.2865C68.4963 24.1724 68.1778 25.1012 67.9631 26.0565C67.0444 26.4342 66.1814 26.9355 65.3981 27.5465C64.5281 28.1923 63.7151 28.9116 62.9681 29.6965C62.9681 29.6965 62.9781 27.4165 64.7931 23.7265C66.6131 20.0415 69.9431 18.3565 71.8331 18.1965C73.5331 18.0615 75.7481 19.5065 73.8731 24.8315C71.9981 30.1565 66.4581 36.6315 60.6431 36.7115C55.2781 36.7865 51.7631 29.9365 59.2331 17.9865C67.5031 4.77146 77.2031 0.721458 80.3481 0.271458C83.4981 -0.178542 84.5231 1.20646 84.5231 1.20646C86.418 0.429919 88.4643 0.0931403 90.5081 0.221457C94.3581 0.481457 97.3281 3.20146 101.258 5.11646C100.233 6.09146 99.2581 7.11646 98.3831 8.07646M115.653 3.62646C112.988 5.33646 109.303 6.88646 105.758 6.55646C104.863 7.48146 103.903 8.55646 102.943 9.72646C109.083 10.9415 114.468 7.13146 117.328 3.89146C118.371 2.72878 119.268 1.44251 119.998 0.0614589C118.695 1.41789 117.237 2.61114 115.653 3.62646ZM107.473 20.9415C107.52 20.8607 107.559 20.7752 107.588 20.6865C107.57 20.5453 107.504 20.4145 107.401 20.3162C107.299 20.2179 107.165 20.158 107.023 20.1465C106.438 20.1215 105.638 20.2315 103.548 22.5465C101.811 24.461 100.317 26.5819 99.0981 28.8615C97.8981 31.0515 97.4131 32.6815 98.0981 33.1015C98.323 33.2186 98.5841 33.2454 98.8281 33.1765C99.2931 33.0665 99.8231 32.6265 100.628 31.7015C101.003 31.2615 101.418 30.6415 101.918 29.9565C103.303 28.0765 106.783 22.1415 107.473 20.9415ZM85.7281 23.4615C86.0781 22.5515 86.5231 20.7565 85.5981 20.0515C84.6031 19.3015 82.0731 21.0565 82.0581 22.8565C82.0431 24.7015 83.8431 25.5315 84.2731 25.6515C84.5231 25.7165 84.6031 25.7015 84.7231 25.5065C85.1051 24.8489 85.4409 24.1656 85.7281 23.4615ZM83.8131 26.8115C83.1857 26.5217 82.6004 26.1483 82.0731 25.7015C81.5456 25.2579 81.1049 24.7205 80.7731 24.1165C80.7331 24.0565 80.6981 24.1015 80.6581 24.1565C80.6231 24.2065 80.4631 24.3515 79.1131 26.3265C77.7631 28.3065 75.6931 32.4065 77.5631 33.1015C78.7681 33.5515 80.7681 31.4465 81.8631 30.0515C82.6045 29.0766 83.2761 28.0508 83.8731 26.9815C83.9331 26.8665 83.8731 26.8365 83.8131 26.8115ZM105.103 31.5465C104.593 32.3615 104.013 33.9265 105.688 32.9515C107.738 31.7715 110.658 27.3365 110.658 27.3365H111.983C110.778 29.1907 109.436 30.9522 107.968 32.6065C105.893 34.9065 103.358 37.0015 101.568 36.7915C99.4881 36.5515 100.138 33.8115 100.138 33.8115C100.138 33.8115 97.1581 36.9865 95.0881 36.7615C92.3031 36.4515 93.1531 33.0065 93.1531 33.0065C93.1531 33.0065 90.0031 36.8765 87.8531 36.7565C84.4881 36.5565 85.3331 32.4615 86.2731 29.5765C86.7731 28.0365 87.2381 26.8265 87.2381 26.8265C87.2381 26.8265 86.9031 26.9115 86.1881 27.0165C85.8081 27.0715 85.1281 27.1115 85.1281 27.1115C85.1281 27.1115 83.7281 29.5865 82.6031 31.0715C81.4831 32.5565 76.7131 37.6815 73.9031 36.6565C71.3131 35.7065 72.1731 31.7365 73.6831 28.5815C75.8831 23.9815 82.0831 17.3665 85.6631 18.2415C89.3681 19.1415 85.7481 25.9015 85.7481 25.9015C85.7481 25.9015 85.7481 25.9265 85.7831 25.9465C85.8581 25.9715 86.0531 25.9965 86.4981 25.9065C86.9607 25.8132 87.4141 25.6794 87.8531 25.5065C87.8531 25.5065 91.5831 17.7015 95.6981 12.5915C99.8131 7.49146 108.023 -1.30854 111.248 0.821456C112.028 1.34646 111.678 3.14646 110.618 5.33146C110.14 5.48666 109.655 5.61683 109.163 5.72146C109.873 4.43146 110.343 3.34646 110.483 2.58646C110.968 -0.0535405 104.808 5.51146 100.408 11.4865C97.7563 15.0903 95.4002 18.9027 93.3631 22.8865C94.1579 22.4019 94.9165 21.8605 95.6331 21.2665C97.5972 19.6393 99.4637 17.8979 101.223 16.0515C102.916 14.3178 104.504 12.4845 105.978 10.5615C106.447 10.5386 106.914 10.4902 107.378 10.4165C105.77 12.5989 104.016 14.6702 102.128 16.6165C100.378 18.3915 98.4781 20.3015 96.8231 21.6915C95.3487 22.9437 93.7937 24.0979 92.1681 25.1465C92.1681 25.1465 88.3181 32.9115 90.4131 33.4065C91.6431 33.7065 94.0731 29.9565 94.0731 29.9565C94.0731 29.9565 97.2481 25.1215 99.1581 22.9365C101.768 19.9715 104.008 18.2565 106.258 18.2265C107.563 18.2015 108.333 19.5915 108.333 19.5915L108.948 18.6415H112.733C112.733 18.6415 105.663 30.6315 105.098 31.5365M115.653 3.63646C112.988 5.34146 109.303 6.89146 105.758 6.56146C104.858 7.48646 103.903 8.56146 102.938 9.73146C109.083 10.9465 114.463 7.14146 117.328 3.89646C118.372 2.73223 119.268 1.44426 119.998 0.0614589C118.695 1.41789 117.237 2.61114 115.653 3.62646M62.5031 9.51646H58.9031L56.8681 12.8065H60.4681L62.5031 9.51646ZM45.4531 20.9015C46.9881 18.8015 51.2131 11.4465 51.2131 11.4465C51.1954 11.3061 51.1302 11.1759 51.0284 11.0777C50.9265 10.9795 50.7941 10.919 50.6531 10.9065C50.0681 10.8765 49.0931 11.0765 47.1531 13.5015C45.2181 15.9265 43.7131 17.8515 42.6181 19.8615C41.4181 22.0515 40.8881 23.5965 41.5831 24.0165C41.806 24.1282 42.062 24.1549 42.3031 24.0915C42.7531 23.9815 43.3431 23.5265 44.1481 22.6015C44.6065 22.0518 45.0435 21.4847 45.4581 20.9015M26.1431 10.9515C25.1481 10.2015 22.6181 11.9565 22.6031 13.7515C22.5881 15.5965 24.8831 16.1615 25.1781 16.1715C25.2645 16.1792 25.3514 16.1619 25.4281 16.1215C25.4811 16.0899 25.523 16.0427 25.5481 15.9865C25.819 15.4576 26.0627 14.9152 26.2781 14.3615C26.6281 13.4465 27.0681 11.6565 26.1431 10.9515ZM24.6431 17.3015C23.9573 17.0862 23.3019 16.7838 22.6931 16.4015C22.1018 16.0164 21.621 15.4839 21.2981 14.8565C21.2631 14.7965 21.2231 14.8415 21.1881 14.8965C21.1531 14.9465 20.9531 15.2015 19.5981 17.1865C18.2481 19.1765 16.2381 23.2365 18.1181 23.9365C19.3181 24.3865 21.3381 22.2665 22.4381 20.8765C23.2601 19.7853 24.0197 18.6485 24.7131 17.4715C24.7581 17.3515 24.7131 17.3215 24.6431 17.3015ZM54.0431 18.5215H55.3581C55.3581 18.5215 48.7531 28.0815 45.0181 27.6365C42.9381 27.3915 43.5531 24.8215 43.5531 24.8215C43.5531 24.8215 40.6281 28.2465 37.9381 27.5515C35.5031 26.9265 37.0781 22.8715 37.0781 22.8715C36.7981 22.9815 31.5231 28.9265 27.8131 27.5015C23.9331 26.0015 25.9481 21.0215 26.6881 19.5265C27.3131 18.2615 28.0031 17.0315 28.0031 17.0315C28.0031 17.0315 27.4081 17.2015 27.0281 17.2865L26.0981 17.4865C26.0981 17.4865 24.2631 20.4665 23.1431 21.9565C22.0181 23.4415 17.2531 28.5565 14.4431 27.5415C11.6331 26.5215 12.3281 22.5915 13.9081 19.4665C16.4681 14.4065 22.5381 8.18646 26.1981 9.12646C29.8931 10.0715 26.8331 16.0665 26.8331 16.0665C26.8331 16.0665 27.5681 16.1615 29.3331 14.9565C31.8681 13.2265 35.2131 8.57146 38.8381 9.12146C40.5481 9.37646 42.1381 11.1215 39.9631 14.4415C39.2681 15.5065 38.1031 16.4565 37.2131 15.5165C36.6581 14.9265 37.1431 13.8665 37.7281 13.1315C37.9551 12.834 38.2516 12.5969 38.5916 12.4409C38.9316 12.2848 39.3047 12.2146 39.6781 12.2365C39.6781 12.2365 40.2781 10.8715 38.7531 10.8915C37.5181 10.9165 34.3981 13.7915 32.6381 16.6915C31.0231 19.3565 28.5731 23.8965 31.0281 24.8865C33.2831 25.7965 37.5731 20.7065 39.5581 18.0365C41.5431 15.3715 46.0681 9.32646 49.8681 9.08646C51.1731 9.00146 51.9531 10.1915 51.9531 10.1915L52.3931 9.49646H56.1881C56.1881 9.49646 49.0381 21.4315 48.4781 22.3315C48.0381 23.0365 47.4581 24.6315 49.0631 23.7365C50.6731 22.8465 54.0431 18.5215 54.0431 18.5215ZM51.9731 37.6415C49.178 35.7059 45.8306 34.7287 42.4331 34.8565C41.5146 34.8818 40.615 35.1231 39.8071 35.561C38.9992 35.9988 38.3058 36.6207 37.7831 37.3765C36.3331 34.8515 33.4731 33.3015 29.0481 33.3365C21.8981 33.4165 14.8031 36.7165 9.18813 36.7115C3.80313 36.7115 -0.126867 33.3265 0.00313269 27.3115C0.238133 16.7665 9.15313 7.26646 15.8031 2.99146C19.6381 0.541456 22.8481 -0.19354 24.9431 0.0414603C26.4731 0.21146 28.3131 1.98146 27.1531 4.58646C25.4481 8.39146 23.0931 8.08146 23.1781 6.26146C23.2281 5.07646 24.0181 4.33146 24.6081 3.91646C25.0359 3.68919 25.5137 3.57233 25.9981 3.57646C26.3381 3.29146 26.5831 1.20646 23.8531 1.89146C21.1231 2.57646 17.8031 5.27146 14.6531 8.74646C11.5031 12.2265 6.60313 18.8015 5.39313 25.7065C4.82813 28.9065 5.19813 34.7465 12.7931 34.6815C19.2281 34.6315 28.7181 30.3865 37.4381 30.4765C40.4742 30.4645 43.4561 31.2804 46.0631 32.8365C48.3181 34.2265 51.0231 36.2565 51.9831 37.6415" fill="white"/>
</svg>
