<svg width="106" height="61" viewBox="0 0 106 61" fill="none" xmlns="http://www.w3.org/2000/svg">
<path d="M43.68 41.1483V60.8218H49.2333V41.1483H43.68ZM0 41.1133V60.8031H5.60233V45.5163L9.97033 45.5326C11.4053 45.5326 12.404 45.8826 13.0877 46.6176C13.9708 47.5509 14.3208 49.0676 14.3208 51.8209V60.8078H19.7575V49.9379C19.7575 42.1679 14.8062 41.1179 9.9715 41.1179L0 41.1133ZM52.6342 41.1483V60.8218H61.6373C66.4393 60.8218 68.0073 60.0214 69.6897 58.2376C70.8913 56.9869 71.6567 54.2196 71.6567 51.2026C71.6567 48.4353 71.0068 45.9678 69.8565 44.4336C67.823 41.6826 64.855 41.1495 60.4205 41.1495L52.6342 41.1483ZM58.1362 45.4159H60.5208C63.9882 45.4159 66.2223 46.9676 66.2223 51.0008C66.2223 55.0339 63.9882 56.6031 60.5208 56.6031H58.1362V45.4159ZM35.6778 41.1483L31.0427 56.7349L26.6093 41.1483H20.6068L26.9418 60.8218H34.9452L41.3467 41.1483H35.6778ZM74.256 60.8218H79.8093V41.1483H74.256V60.8218ZM89.8275 41.1483L82.075 60.8043H87.5327L88.7658 57.3194H97.9358L99.1025 60.7868H105.055L97.2358 41.1471L89.8275 41.1483ZM93.429 44.7323L96.7972 53.9349H89.9605L93.429 44.7323Z" fill="white"/>
<path d="M45.4417 11.004V7.679L46.4264 7.63817C55.5381 7.35117 61.5114 15.4782 61.5114 15.4782C61.5114 15.4782 55.0667 24.4265 48.1496 24.4265C47.2256 24.4265 46.3226 24.283 45.4604 23.9948V13.8962C49.0117 14.3278 49.7304 15.8877 51.8421 19.4378L56.5834 15.456C56.5834 15.456 53.1149 10.92 47.2851 10.92C46.6691 10.899 46.0531 10.941 45.4382 11.0017M45.4382 0V4.96767L46.4229 4.90583C59.0894 4.46483 67.3611 15.2938 67.3611 15.2938C67.3611 15.2938 57.8784 26.8287 47.9944 26.8287C47.1311 26.8287 46.2911 26.747 45.4488 26.6023V29.6823C46.1464 29.764 46.8651 29.8258 47.5628 29.8258C56.7584 29.8258 63.4084 25.1242 69.8531 19.5825C70.9206 20.4458 75.2921 22.5178 76.1951 23.4325C70.0782 28.5635 55.8134 32.6888 47.7261 32.6888C46.9719 32.6897 46.2182 32.6484 45.4686 32.5652V36.8982H80.4161V0.00233344L45.4382 0ZM45.4382 23.9937V26.621C36.9402 25.102 34.5801 16.2563 34.5801 16.2563C34.5801 16.2563 38.6634 11.7413 45.4382 11.0017V13.8752H45.4172C41.8659 13.4435 39.0752 16.7685 39.0752 16.7685C39.0752 16.7685 40.6561 22.372 45.4382 23.9937ZM30.3532 15.8853C30.3532 15.8853 35.3699 8.45367 45.4592 7.6755V4.97C34.2977 5.873 24.6494 15.3148 24.6494 15.3148C24.6494 15.3148 30.1094 31.1197 45.4417 32.5558V29.6823C34.1951 28.287 30.3567 15.8888 30.3567 15.8888L30.3532 15.8853Z" fill="white"/>
</svg>
