<svg width="95" height="61" viewBox="0 0 95 61" fill="none" xmlns="http://www.w3.org/2000/svg">
<path fill-rule="evenodd" clip-rule="evenodd" d="M72.0847 54.4485L72.128 46.888H67.9521V55.2388C67.9521 58.0519 70.8973 60.3379 74.5017 60.3379C78.1061 60.3379 81.0513 58.0519 81.0513 55.2388V46.888L76.9197 46.9324V54.4485C76.9197 55.7236 75.8644 56.7345 74.546 56.7345C73.139 56.7335 72.0847 55.7226 72.0847 54.4485ZM94.5445 59.7231H90.3686V37.7017H94.5445V59.7231ZM87.4678 59.7231H83.2919V37.7017H87.4678V59.7231ZM19.2083 51.6787C19.2083 50.2727 20.3513 49.1297 21.7573 49.1297C23.1634 49.1297 24.3064 50.2727 24.3064 51.6787H19.2083ZM28.4379 54.0524C28.4813 53.7883 28.4813 53.4809 28.4813 53.1735C28.5256 48.6458 25.5361 46.1411 21.712 46.1411C17.8879 46.1411 14.8116 49.2617 14.8116 53.1302C14.8116 56.9986 17.8889 60.1182 21.713 60.1182C24.6138 60.1182 26.8998 58.7998 28.0862 56.7335L24.7015 55.1511C24.2621 56.0743 23.2511 56.7335 22.0637 56.7335C20.4813 56.7335 19.2073 55.5472 19.2073 54.1401C19.2073 54.0524 19.1629 54.0958 19.1629 54.0081L28.4379 54.0524ZM34.8555 53.1292C34.8555 51.2826 36.2182 49.7888 37.9317 49.7888C39.6452 49.7888 41.0079 51.2836 41.0079 53.1292C41.0079 54.9747 39.6452 56.4695 37.9317 56.4695C36.2182 56.5138 34.8555 54.9757 34.8555 53.1292ZM40.9646 58.2727C39.8659 59.4157 38.3712 60.0748 36.7454 60.0748C33.273 60.0748 30.5042 56.9986 30.5042 53.2179C30.5042 49.4381 33.3174 46.3608 36.7454 46.3608C38.3722 46.3608 39.8226 47.02 40.9646 48.1187V37.746H45.1405V59.6787H40.9646V58.2727ZM59.2939 56.0743H55.2944V42.4924H58.1076C59.3383 42.4924 60.3492 43.5033 60.3492 44.734C60.3492 45.9647 59.3383 46.9757 58.1076 46.9757H56.6562V50.7555H59.3373C60.832 50.7555 61.9307 51.9418 61.9307 53.4366C61.843 54.9313 60.9197 55.9867 59.2939 56.0743ZM63.1614 40.4705C64.128 41.4814 64.6562 42.7998 64.6562 44.2502C64.6562 45.8327 63.9526 47.2388 62.8106 48.3384C65.6238 49.6568 66.4584 51.3713 66.4584 53.745C66.4584 57.042 63.6009 59.6787 60.0852 59.7664L50.8545 59.8108V38.889L58.0189 38.9334C60.3926 38.9324 62.1504 39.3718 63.1614 40.4705ZM6.72496 42.3614H4.43896V59.7231H0V38.757H7.3398C7.42749 38.757 7.55953 38.757 7.64722 38.757C11.1196 38.757 13.9761 41.5258 13.9761 44.9548C13.9761 47.8556 11.9098 50.317 9.18533 50.9762L15.3388 59.7231H10.0643L5.58095 52.8661V47.8113H6.63626C8.26206 47.8113 9.62479 46.5806 9.62479 45.0858C9.6258 43.592 8.35076 42.3614 6.72496 42.3614Z" fill="white"/>
<path fill-rule="evenodd" clip-rule="evenodd" d="M47.867 0.965695C39.3697 0.965695 32.4819 7.85346 32.4819 16.3508C32.4819 24.8482 39.3697 31.7359 47.867 31.7359C56.3644 31.7359 63.2522 24.8482 63.2522 16.3508C63.2522 7.85346 56.3644 0.965695 47.867 0.965695ZM31.5162 16.3508C31.5162 7.32012 38.8364 0 47.867 0C56.8977 0 64.2178 7.32012 64.2178 16.3508C64.2178 25.3815 56.8977 32.7016 47.867 32.7016C38.8364 32.7016 31.5162 25.3815 31.5162 16.3508Z" fill="white"/>
<path fill-rule="evenodd" clip-rule="evenodd" d="M34.7225 6.636C34.9865 6.76804 35.2496 6.90008 35.5137 7.07546C36.7444 7.91104 37.5356 8.61357 39.4255 10.196C39.997 10.7232 40.6118 11.6465 41.0956 12.1736C42.1509 13.4486 42.8101 14.3276 42.9855 15.3819C43.2929 17.4915 43.557 18.6788 44.3916 20.8318C44.4793 21.0515 44.8311 21.3589 45.0508 21.5787C45.5346 22.1935 45.7543 23.2488 46.6766 23.776C47.1604 24.0401 47.2481 24.1277 47.4235 24.2598C47.6876 24.4795 47.2481 25.2264 45.973 25.051C46.6322 25.4028 46.5446 26.1497 45.5779 26.194C43.6437 26.2374 42.5007 25.1831 42.2376 24.919C42.1499 24.8313 41.7538 25.2707 41.0946 25.5782C40.3911 25.9299 39.4688 25.5782 38.7653 25.7102C38.1061 25.8422 37.1828 26.2817 36.4803 26.2817C35.2053 26.3251 35.0299 25.4461 35.0299 24.6559C35.0299 24.5239 35.0299 24.3485 35.0299 24.3041C34.8978 24.7879 34.4584 25.5792 34.4584 25.5792C34.283 25.9743 34.0189 26.4148 33.5794 26.5901L32.2611 26.7655C31.2068 27.205 30.1515 27.5568 29.0528 27.9519C28.3936 28.0839 27.6901 27.9519 27.2506 27.5567C26.8988 27.2493 26.6358 26.8532 26.4594 26.5014C26.2396 26.4137 25.9322 26.5014 25.7125 26.4138C25.4928 26.3694 25.3607 26.194 25.2287 26.062L24.3054 24.5239C24.2177 24.3041 24.2177 23.9967 24.3054 23.8203C24.4818 23.4686 24.8769 23.2932 25.2287 23.2932C25.9322 23.2488 26.6791 23.0291 27.3383 23.2932C27.6457 22.9414 28.0852 22.9858 28.5246 22.8981C28.3493 22.6783 28.0852 22.5019 27.8655 22.2822C26.6348 22.5896 25.272 22.3699 24.0857 22.1502C22.987 21.8861 22.0638 22.5453 20.9651 22.3699L20.6133 23.0734C20.1295 23.6449 20.0862 24.5682 19.295 24.919C18.7678 25.051 18.3283 25.4461 17.8445 25.6659C17.009 26.1053 15.8226 25.9299 14.9437 25.7535C14.5919 25.7092 14.2845 25.7536 13.9771 25.8856C13.6697 26.1053 13.3612 26.4571 13.0105 26.6768C12.4833 26.8966 11.9995 27.336 11.3847 27.3804C11.0329 27.3804 10.7255 27.1606 10.3737 27.2483C9.93424 27.7321 9.75886 28.479 9.05532 28.6544C8.35178 28.8298 7.51721 28.6987 6.85802 28.5224C6.63829 28.61 6.50625 28.7864 6.24217 28.7421C5.75836 28.61 5.3189 28.478 4.87944 28.2583C4.70406 28.0829 4.65971 27.9065 4.61536 27.6868C4.61536 27.3794 4.83509 27.1153 4.96713 26.8955C5.01148 26.5881 5.01148 26.192 5.14251 25.8846C5.36224 25.4008 5.84605 25.1377 6.28551 24.918C6.32986 24.5662 6.54959 24.2588 6.85701 24.1267C7.42851 23.8193 8.00001 23.1601 8.70355 23.5552L9.45043 24.2144C10.1096 23.907 9.93424 23.2478 10.286 22.7197C10.4614 22.3679 10.6811 21.9284 11.1216 21.9284C11.429 21.8841 11.7374 21.9718 12.0449 21.9284C12.4843 21.7964 12.9238 21.621 13.2312 21.2692L13.1869 21.0052C12.7474 20.2139 12.6597 19.2473 12.6154 18.2797C11.8685 18.3674 11.0329 18.4994 10.286 18.324C9.09967 18.1477 7.95667 17.2254 7.51721 16.0824C6.99006 14.9394 7.20979 13.3569 8.04436 12.3903C8.66021 11.6434 9.40709 10.9399 10.154 10.3684C9.88989 10.2807 9.58247 10.3251 9.36274 10.2364C8.26409 10.06 7.16544 9.09335 6.94571 7.9947C6.77033 7.29116 6.94571 6.58863 7.29748 5.97278C7.42952 5.84074 7.56156 5.7087 7.73694 5.79639C8.26409 6.01612 8.44048 6.2802 8.96763 6.54327L9.27505 6.71865C10.6811 7.20246 12.5277 7.20246 13.0548 8.87261C13.4066 10.191 12.571 11.2463 11.56 11.9932C10.8132 12.5203 10.0653 13.2239 9.67016 14.0595C9.49478 14.6743 9.58247 15.2458 10.1096 15.6419C10.6368 16.1257 11.5157 16.1257 12.1759 15.906C13.3622 15.4222 14.4619 14.631 15.5162 13.7964C16.5272 13.0495 17.7579 12.7411 19.0329 12.6977C19.6044 12.5657 20.1315 12.3026 20.6154 11.9509C21.4066 11.204 22.2412 10.5448 23.2965 10.3251C23.7359 10.2374 24.2197 10.193 24.7025 10.1487C25.0543 9.97328 25.3174 9.53382 25.6258 9.31308C26.9885 8.12674 28.8784 8.12674 30.3732 7.15912C31.2088 6.49993 32.131 6.10381 33.274 6.14816C33.8012 6.19251 34.2407 6.2802 34.6801 6.45558L34.7225 6.636ZM36.1295 21.0092C35.2063 21.0525 34.6348 21.2733 33.9756 21.361C34.0189 21.9758 34.3273 22.4596 34.8545 23.1188C35.0309 22.1078 35.8655 21.7571 36.1295 21.0092Z" fill="#ED6FBA"/>
<path fill-rule="evenodd" clip-rule="evenodd" d="M59.8625 21.1854C60.3019 21.8446 60.566 22.4605 60.9168 23.1197C61.3129 22.3728 61.6637 21.7569 61.9721 21.2741C61.9721 21.3165 60.8734 21.4485 59.8625 21.1854ZM60.7414 24.3493C60.6971 24.4814 60.6094 24.5247 60.434 24.5247C60.566 25.1396 60.1699 26.1949 59.0713 26.2826C58.3677 26.3259 57.137 25.6234 56.5222 25.5357C55.8186 25.4913 54.5003 26.0195 53.709 24.9208C52.6981 26.1515 51.5117 26.4589 50.5008 26.4589C49.9293 26.4589 49.2701 26.1072 50.1933 25.3603C48.2591 26.0195 48.2591 24.6568 48.5675 24.437C48.7873 24.2606 49.0514 24.1296 49.7539 23.4261C52.4793 20.5696 51.424 15.6901 54.4126 12.4375C55.5556 11.1625 56.4788 10.46 58.8082 8.78981C59.5994 8.21831 60.3906 7.47143 61.1375 6.85558L61.1819 6.89892V6.85558C61.6657 6.54816 62.0608 6.15204 62.588 6.06435C63.6433 5.93231 64.6099 6.28408 65.4455 6.81123C65.8406 7.11865 66.1923 7.47042 66.5441 7.86654C66.8082 8.13062 67.2033 8.13062 67.5107 8.26165C68.4773 8.43703 69.3563 8.7888 70.1475 9.31696C70.719 9.66873 71.1584 10.2402 71.8176 10.3279C72.6089 10.46 73.3558 10.723 74.0593 11.1192C74.8939 11.6907 75.6851 12.3498 76.6527 12.5262C78.6746 12.746 80.3448 13.889 81.9716 14.9876C82.8949 15.5148 83.9935 16.174 85.1365 15.7788C85.4439 15.6468 85.708 15.3394 85.8401 15.032C85.9278 14.2851 85.4883 13.7136 85.0045 13.1421C84.0379 11.9991 82.3667 11.0325 82.5431 9.36232C82.8505 8.13163 84.1689 7.42809 85.2686 7.07632C85.8844 6.85659 86.5869 6.94428 87.0708 6.41713C87.3348 6.24074 87.4659 5.67024 87.862 5.88997C88.2138 6.1097 88.2581 6.54917 88.3014 6.90094C88.4768 8.08728 88.2138 9.27463 87.1151 9.97716C86.588 10.2846 86.0598 10.461 85.4449 10.5487C86.3239 11.2955 87.2028 12.1745 87.6866 13.1421C87.994 13.7136 88.1704 14.2407 88.2138 14.9443C88.1694 16.2193 87.4225 17.318 86.3239 17.9772C85.6647 18.3289 84.9611 18.461 84.2143 18.461C83.9068 18.461 83.6428 18.3733 83.3787 18.3733C83.5107 18.9881 83.5107 19.7804 83.3787 20.4395C83.3343 20.7913 83.1146 21.1431 83.1146 21.5826C83.29 21.8023 83.5097 21.8023 83.7738 21.8023C84.3453 21.8023 85.0045 21.7589 85.2686 22.3738C85.5326 22.9009 85.6647 23.5601 85.8844 24.0883C85.9721 24.176 86.0165 24.3957 86.1485 24.3524C86.5436 24.0006 86.8954 23.5611 87.4669 23.6932C87.994 24.0449 88.4778 24.3967 89.005 24.7918C89.137 24.9239 89.1814 25.0992 89.2247 25.319C89.6642 25.4944 90.1913 25.8028 90.3234 26.2856C90.4111 26.593 90.3667 26.9448 90.4554 27.2522C90.5874 27.604 90.9392 27.9991 90.6751 28.4385L90.4998 28.5706L88.874 29.0544C88.7419 29.0544 88.6099 28.9667 88.5222 28.8347C87.6866 28.7913 86.6767 29.0544 86.0165 28.4395C85.709 28.1755 85.4893 27.8681 85.2696 27.5606C84.7858 27.8247 84.0389 28.0001 83.5117 27.6483C82.4574 26.8127 81.4021 26.0215 79.9517 26.0659C79.3368 26.1979 78.5446 26.3733 77.9298 26.1102C77.3583 25.6707 76.6557 25.451 76.1719 24.8795C75.5127 24.176 75.4684 23.3414 75.2487 22.4625C74.3254 22.6822 73.3144 22.5502 72.3922 22.5058C71.6453 22.4625 70.8974 22.5935 70.1949 22.7256C69.3159 22.9019 68.3493 22.9896 67.3817 22.9453L66.9422 23.297C67.162 23.3404 67.3817 23.3404 67.5571 23.4724L67.7335 23.6478C68.4804 23.7355 69.3593 23.6045 70.0628 23.7799C70.2382 23.8242 70.4146 23.9996 70.5023 24.175C70.59 24.3947 70.59 24.6588 70.4579 24.8342C70.0628 25.318 69.8864 25.9328 69.3593 26.3723C69.2272 26.5476 68.8321 26.3279 68.7878 26.6363C68.6124 27.3832 67.9089 28.0434 67.162 28.1745C66.8546 28.2178 66.5471 28.1745 66.2831 28.0868C65.4041 27.7793 64.4809 27.5153 63.6019 27.2955C63.2945 27.2079 63.0748 26.9004 62.8107 26.724C62.4156 26.724 61.8874 26.8561 61.6244 26.5043C61.4923 26.4166 61.3603 26.1525 61.3169 25.9772C61.1365 25.6244 60.8735 24.9652 60.7414 24.3493Z" fill="#ED6FBA"/>
<path fill-rule="evenodd" clip-rule="evenodd" d="M34.2851 11.9549C34.5492 12.6141 34.5492 13.4497 34.3728 14.1089C34.3284 14.1532 34.2851 14.1532 34.2407 14.1089C34.1087 13.494 33.9767 12.9225 33.7569 12.351C33.6249 11.9993 33.1854 11.7362 33.4052 11.3401C33.4928 11.2524 33.6692 11.2524 33.7569 11.2967C34.022 11.4711 34.1541 11.7352 34.2851 11.9549ZM41.0544 17.8886C41.5382 18.4158 41.8456 19.0316 41.7136 19.7785C41.6259 19.9106 41.6692 20.1303 41.4495 20.1736C41.3618 20.217 41.2731 20.1293 41.2731 20.0416C41.2298 19.6465 41.2298 19.2504 41.009 18.9429C40.745 18.6789 40.4819 18.1961 40.0424 18.1961C39.735 18.2838 39.5153 18.6355 39.3389 18.8553C39.3389 18.8986 39.2945 18.8986 39.2512 18.8553C39.0748 18.4591 39.4266 18.1084 39.5586 17.7566C39.8227 17.4925 39.734 16.79 40.3055 17.0097C40.7026 17.2294 40.7903 17.6246 41.0544 17.8886ZM40.1755 22.8991C40.2188 23.1632 40.2188 23.5139 39.9557 23.6903C39.6917 23.778 39.3842 23.8224 39.0768 23.778C38.9891 23.7347 38.9014 23.6903 38.9448 23.6026C39.0768 23.2075 39.4719 22.8114 39.868 22.7237C39.9557 22.7671 40.1311 22.7237 40.1755 22.8991ZM9.31948 7.47161C10.3304 7.73569 11.4291 7.73569 12.177 8.52692C12.5721 9.05407 12.6164 9.88965 12.309 10.4611C11.7375 11.4721 10.5512 11.9993 9.80329 12.8782C9.09975 13.493 8.83668 14.4163 9.05641 15.2952C9.32049 16.0865 10.1117 16.6579 10.903 16.7013C12.1336 16.7456 13.1003 16.0865 14.1112 15.5149C15.1222 14.8114 16.0454 13.8891 17.2318 13.5807C17.9787 13.3166 18.8576 13.4487 19.5611 13.1413C20.3967 12.9649 21.0116 12.3057 21.6274 11.7342C22.3309 11.1627 23.1655 10.8109 24.1331 10.8553C24.9677 10.9873 25.4515 10.1961 26.023 9.71225C26.9896 8.83333 28.2647 8.74564 29.4077 8.21748C30.1989 7.9534 30.8581 7.3819 31.605 6.98679C32.3085 6.67937 33.3195 6.63502 34.022 6.8991C34.5058 7.11883 34.9886 7.33856 35.3847 7.64598L38.8127 10.5025C38.8571 10.6345 38.9881 10.6779 39.0768 10.7666C40.0434 11.9529 41.0987 13.0959 41.8456 14.3709C42.1097 14.8104 42.1974 15.2942 42.3294 15.777C42.5048 17.7112 43.033 19.4247 43.6478 21.0959C43.8242 21.36 44.175 21.5354 44.3514 21.7994C44.8785 22.5463 45.2303 23.5139 46.1092 23.9967L46.6364 24.2608C46.6797 24.3052 46.6797 24.3929 46.6364 24.4372L46.5487 24.5249C45.4933 24.7003 44.7031 24.0411 44.175 23.2942C43.8232 22.635 43.3837 21.8871 42.6369 21.6241C42.5925 21.6241 42.5492 21.6684 42.5492 21.6684C42.6369 21.8881 42.9009 22.1079 42.9886 22.3276C43.296 22.8114 43.5601 23.2942 43.6922 23.778C43.8675 24.3052 44.439 24.7013 44.9229 25.0087L45.6264 25.3605C45.7141 25.4038 45.7584 25.5359 45.6707 25.6246L45.5831 25.6689C44.4401 25.7133 43.4291 25.3171 42.6379 24.4826C42.4625 24.2628 42.1984 24.0875 41.9343 24.0875C41.4072 24.5269 40.9234 24.9664 40.2198 25.0107C39.5163 24.8787 38.725 24.8787 38.1102 25.1428C37.5387 25.3625 36.9672 25.5822 36.308 25.6266C36.0006 25.6266 35.6488 25.4945 35.5611 25.1871C35.5611 24.8353 35.2971 24.3959 35.5178 24.0008L35.9573 23.3416C35.9573 23.2539 35.9129 23.1662 35.8252 23.1662C35.6488 23.1229 35.3414 23.4303 35.2981 23.1229C35.3414 22.4637 35.9573 22.0675 36.3967 21.6281C36.4844 21.1009 36.7041 20.6615 37.0559 20.2654C37.0559 20.221 37.0116 20.1333 36.9239 20.1333C36.3967 20.221 35.8252 20.353 35.2537 20.353C34.7699 20.6171 34.1984 20.7925 33.6712 20.6171C33.5392 20.5294 33.5836 20.3974 33.6269 20.3097C34.1984 19.5185 34.4181 18.5075 34.2861 17.4966C34.2417 17.4522 34.2417 17.3645 34.1541 17.3645C34.0664 17.3645 34.0664 17.4522 34.022 17.4966C33.89 18.4198 33.5826 19.1667 33.0987 19.9136C32.7036 20.3097 32.1321 20.2654 31.6483 20.4407C31.5163 20.4851 31.3842 20.6171 31.3842 20.7482C31.3842 21.0556 31.604 21.3197 31.736 21.5837L32.8347 23.6057C32.878 24.1772 32.6149 24.7043 32.4829 25.1881C32.5272 25.2758 32.6149 25.2315 32.7026 25.1881C33.0977 24.8364 33.3618 24.3969 33.4939 23.9131C33.5382 23.6934 33.4505 23.4293 33.3618 23.2539L32.2188 21.0122C32.3065 20.8802 32.4829 20.8802 32.6139 20.8369C32.878 20.8369 33.0977 20.9689 33.3608 21.0566C33.6249 21.7601 33.888 22.4193 34.3718 23.0342C34.4595 23.3859 34.5915 23.9131 34.3274 24.2205C34.0633 24.7043 33.8003 25.1438 33.4918 25.6266C33.1844 25.934 32.745 25.8907 32.3488 25.934H31.9971C30.9861 26.4611 29.9308 26.8129 28.8321 27.1647C28.3483 27.3844 27.8212 27.208 27.4261 26.9006C27.031 26.5932 26.8989 26.1537 26.6348 25.802C26.3274 25.4502 25.888 25.7576 25.5362 25.5379C25.2288 25.0541 24.9647 24.6146 24.7006 24.1318C24.7006 23.9998 24.7006 23.8677 24.8326 23.78C25.2278 23.648 25.6239 23.648 26.0633 23.6047C26.4584 23.5603 26.8546 23.648 27.1186 23.9121C27.6458 24.5269 27.8222 25.3181 28.6134 25.7143C29.1849 25.7576 29.7121 25.5822 30.2402 25.3181C30.5477 25.1428 30.8994 24.8787 30.8994 24.5269C30.8561 23.78 30.3279 23.2085 29.7564 22.7691C29.0972 22.4173 28.438 21.9778 27.9542 21.362C27.7345 21.0546 27.6468 20.6585 27.5148 20.3077C27.4704 20.22 27.3394 20.22 27.2507 20.2633C26.9866 20.4831 27.2073 20.8348 27.2073 21.0989C27.2507 21.2743 27.3394 21.4507 27.2507 21.6261C26.8989 21.9335 26.3718 21.7581 25.888 21.8015C24.9647 21.7581 24.0858 21.362 23.1192 21.4497C22.1959 21.493 20.9218 22.1089 20.2183 21.1856C19.8665 20.3067 19.9542 19.2514 20.1306 18.3724C20.1306 18.2848 20.0429 18.1971 19.9552 18.1971C19.8675 18.1527 19.7799 18.1971 19.7355 18.2848C19.5158 19.1637 19.4281 20.1303 19.2517 21.0536C18.8999 21.8448 18.3284 22.7237 17.4939 23.1198C16.747 23.515 15.9114 23.647 15.0768 23.6913C13.4944 23.7357 11.9562 24.0431 10.9886 25.4058C10.9009 25.5379 10.7689 25.6256 10.8132 25.802C10.8576 25.8453 10.9886 25.8896 11.033 25.8453C12.1316 24.6146 13.5387 24.1308 15.1212 24.1751C16.6593 24.1751 18.1541 23.9111 19.1207 22.5927C19.3847 22.2853 19.5158 21.9778 19.7355 21.6694C19.9109 21.6694 20.0429 21.8891 20.175 21.9768C20.2183 22.4163 19.8232 22.7237 19.6912 23.1198C19.5158 23.5593 19.296 24.0431 18.8556 24.2628C18.3284 24.3949 17.9323 24.7466 17.4928 25.0097C17.009 25.2295 16.4375 25.3171 15.866 25.1861C15.1625 25.0541 14.2402 24.8787 13.58 25.1861C13.2283 25.4058 12.9642 25.8009 12.6134 25.9773C12.1296 26.1527 11.7345 26.5922 11.163 26.5488C10.7679 26.4611 10.3274 26.1971 9.97666 26.5488C9.58154 26.945 9.4495 27.6042 8.92135 27.8239C8.3065 28.1757 7.64631 27.8239 6.98711 27.7805C7.07481 27.1657 7.1625 26.5498 7.55861 26.1104C7.82269 26.066 8.04242 26.0227 8.21781 25.8463C8.48189 25.6266 8.65727 25.3192 8.83366 25.0551C9.36081 24.7033 10.02 24.4402 10.3718 23.8687C10.6358 23.2972 10.6358 22.8134 11.0753 22.3306L11.295 22.2429L12.438 22.1552C12.9218 21.9355 13.317 21.7158 13.7564 21.4084C13.8885 21.2763 13.9318 21.0566 13.8885 20.8812C13.6687 20.3097 13.4933 19.9579 13.3613 19.3864C13.2293 18.7706 13.317 18.2001 13.2293 17.4966C13.1849 17.4522 13.1416 17.3202 13.0539 17.3202C12.307 17.4966 11.5591 17.7163 10.7245 17.5842C9.58154 17.4522 8.43854 16.7053 7.99908 15.5623C7.60397 14.5957 7.69166 13.1886 8.43854 12.3974C9.14208 11.5618 9.97666 10.9026 10.7679 10.2434C10.8999 10.1557 10.8999 9.97936 10.9433 9.84833C10.9433 9.67194 10.7679 9.5409 10.6358 9.49655C10.1087 9.36451 9.5372 9.5409 9.01004 9.32117C8.13112 9.01375 7.42758 8.17817 7.33989 7.2549C7.29554 6.85878 7.38424 6.50802 7.60397 6.15625C8.22083 6.81242 8.70464 7.29522 9.31948 7.47161ZM6.81476 26.3714V26.5035C6.59503 26.9873 6.46299 27.6021 6.28761 28.1736C5.89249 28.1293 5.58407 27.9972 5.27664 27.9096C5.18895 27.8219 5.27664 27.7342 5.27664 27.6455C5.62841 27.2937 5.54072 26.8986 5.62841 26.4148C5.67276 26.1507 5.93584 25.931 6.15557 25.7999C6.46299 25.8876 6.63837 26.1517 6.81476 26.3714ZM8.70464 24.6136C8.48491 25.0531 8.17749 25.5369 7.73803 25.7999C7.56265 25.8433 7.34292 25.8433 7.21088 25.7556C7.12318 25.6679 6.9468 25.5802 6.9468 25.4038C6.99115 25.2284 6.90245 25.0087 7.07884 24.92C7.43061 24.7003 7.78238 24.4805 8.0898 24.2165C8.17749 24.1721 8.30953 24.1288 8.39722 24.2165C8.48491 24.3062 8.66029 24.4372 8.70464 24.6136ZM29.8461 24.4372C29.8905 24.6126 30.1536 24.8323 29.9782 25.0087C29.6264 25.2728 29.2746 25.4482 28.8352 25.3605C28.4834 25.0964 28.5277 24.6136 28.2203 24.3052C28.1326 24.0411 27.7365 24.0411 27.8252 23.778L27.9573 23.6903C28.4411 23.6903 28.8805 23.6903 29.3633 23.6026C29.8018 23.6026 29.6707 24.1298 29.8461 24.4372Z" fill="white"/>
<path fill-rule="evenodd" clip-rule="evenodd" d="M56.5202 17.5371C56.7843 17.8889 56.9597 18.2407 57.135 18.6358C57.1784 18.7235 57.135 18.8112 57.0907 18.8999C57.0474 18.9875 56.9587 19.0763 56.8266 18.9876C56.5192 18.8999 56.5625 18.4161 56.2118 18.4604C55.9477 18.4604 55.7723 18.6801 55.5526 18.8122C55.1575 19.1639 54.6737 19.5157 54.586 19.9985C54.4983 20.1739 54.5426 20.438 54.3662 20.57C54.2786 20.6144 54.1465 20.5267 54.1465 20.438C54.1022 19.7788 54.3219 19.1196 54.8057 18.6801C55.2895 18.285 55.5969 17.7569 55.9921 17.3174C56.2561 17.2297 56.4325 17.3618 56.5202 17.5371ZM56.6522 23.1634C56.7399 23.3388 56.9163 23.5585 56.7843 23.7783C56.6089 23.9103 56.3005 23.8226 56.0808 23.8226C55.8167 23.6906 55.7733 23.3832 55.729 23.0757C55.729 22.9881 55.729 22.9437 55.8167 22.856C56.1684 22.856 56.4759 22.8994 56.6522 23.1634ZM63.0254 10.2407C63.1575 10.4161 63.0254 10.5924 62.9377 10.7245C62.3229 11.296 61.6194 11.8675 61.1799 12.57C61.0035 12.7897 60.9158 13.0538 60.7848 13.2736C60.7848 13.3169 60.7404 13.3169 60.6971 13.3169C60.5651 12.9651 60.7415 12.6134 60.8291 12.2616C61.1366 11.4704 61.7958 10.6791 62.4993 10.152C62.6293 10.0653 62.9377 10.0209 63.0254 10.2407ZM65.4425 7.51622C65.8819 7.82364 66.1017 8.43949 66.6288 8.57153C67.5521 8.79126 68.4744 9.01099 69.3099 9.40711C69.9248 9.71453 70.4529 10.154 70.9801 10.5934C71.5072 10.8575 72.1231 10.8575 72.6502 11.0329C73.4415 11.2526 74.1007 11.8241 74.8042 12.308C75.7275 13.0548 77.0458 12.9228 78.1012 13.4066C79.7713 13.9338 81.134 15.2531 82.7165 16.0444C83.5077 16.4838 84.7384 16.6592 85.573 16.1764C86.1002 15.7803 86.4519 15.2975 86.3642 14.594C86.0568 12.8795 84.1669 11.9562 83.2437 10.5501C83.0683 10.1983 82.9362 9.75888 83.0239 9.36376C83.3313 8.52818 84.2546 8.08973 85.0015 7.73796C85.6174 7.43054 86.3642 7.51823 86.9357 7.16646C87.1555 7.03442 87.2875 6.85904 87.4629 6.727C87.5949 6.727 87.5949 6.85904 87.6383 6.94673C87.8136 7.95769 87.6383 9.013 86.7593 9.5835C86.4076 9.80323 86.0125 9.93527 85.6163 10.023C85.2646 10.155 84.6054 9.89092 84.6497 10.4624C84.7374 10.7265 85.0015 10.9462 85.2212 11.1216C86.4076 12.0882 87.4629 13.3633 87.6383 14.858C87.6826 16.0444 86.8914 17.0553 85.8361 17.5391C85.0892 17.8466 84.1216 17.9786 83.3313 17.7589C83.1116 17.7155 82.7598 17.5391 82.6278 17.8032C82.5845 18.1106 82.8042 18.3747 82.8042 18.6821C82.8919 19.2536 82.8919 19.9572 82.7165 20.4843C82.6288 20.9238 82.1894 21.4076 82.5845 21.8471C82.9796 22.4186 83.7275 22.2422 84.3423 22.3742C84.6941 22.4176 84.7818 22.8137 84.9138 23.0778C85.0459 23.3852 85.0458 23.7813 85.1779 24.0444C85.1779 24.6592 85.8814 24.9233 86.2332 25.3184C86.6727 25.8022 87.0244 26.5934 87.7713 26.5491C87.991 27.0762 88.1664 27.5157 88.2551 28.1316L88.1674 28.2193C87.5526 28.2193 86.8047 28.3956 86.3219 27.9552C85.7947 27.6034 85.6627 26.6801 84.9148 26.9442C84.6074 27.2083 84.1236 27.296 83.7285 27.1196C83.3767 26.9876 83.1136 26.6358 82.7619 26.4604C81.7509 25.7135 80.4325 25.3617 79.1141 25.6248C78.3673 25.8446 77.7514 25.3174 77.1366 24.9213C76.3453 24.5695 76.1256 23.7349 75.9502 22.9871L75.8182 22.1081C75.8182 22.0204 75.9059 21.9327 75.9946 21.9327H76.1266C76.5661 22.9881 77.445 24.13 78.588 24.5262C79.6423 24.9656 80.6099 24.3941 81.7529 24.6139C82.8082 24.7459 83.6428 25.4051 84.4784 26.0643C84.5661 26.0643 84.6104 26.0209 84.6538 25.9322V25.8889C83.6871 24.6582 82.3678 24.0434 80.7853 24.1311C79.5113 24.3951 78.1919 23.9547 77.445 22.856C77.0489 22.2412 76.7415 21.581 76.6094 20.8341C76.4774 19.9985 76.302 19.0763 76.0379 18.285C75.9502 18.2417 75.8625 18.153 75.7738 18.1973L75.6861 18.3294C75.8182 19.1206 76.0379 20.1316 75.7738 20.9661C75.5541 21.6253 74.8949 21.8894 74.2357 21.9327C73.5765 21.9771 73.005 21.8451 72.3458 21.8451C70.8077 21.8007 69.4883 22.4166 67.9069 22.2402C68.0389 21.8884 68.302 21.4933 68.171 21.0538C68.1276 20.9661 67.9956 20.9661 67.9069 20.9661C67.5995 21.1425 67.6428 21.5376 67.4674 21.7574C67.1156 22.3289 66.5008 22.8127 65.885 22.9437C65.4455 23.2955 65.006 23.7793 64.6543 24.1744C64.5222 24.3064 64.5222 24.5262 64.5666 24.7459C64.874 25.4928 65.7529 25.5815 66.4565 25.8012C66.8082 25.8446 67.1156 25.7135 67.2477 25.4051C67.5551 24.9213 67.5995 24.1744 68.2587 24.0867H69.7534C69.8855 24.1311 69.9731 24.2187 70.0175 24.3508L69.9742 24.5705C69.6667 24.9656 69.4904 25.4938 69.0952 25.7569C68.8755 25.8446 68.5237 25.7569 68.3917 25.9766C68.304 26.5037 68.172 27.0319 67.6882 27.295C67.3364 27.6467 66.7649 27.4714 66.3254 27.3393C65.5342 27.0319 64.6996 26.8999 63.9084 26.6358C63.5566 26.5481 63.4246 26.1086 63.0728 26.0209C62.721 25.9332 62.3259 26.1963 62.0618 25.8889C61.8865 25.5371 61.7978 25.2297 61.7101 24.8336C61.578 24.5695 61.4903 24.3064 61.446 23.998C61.4027 23.7339 61.446 23.5586 61.5337 23.3388L62.6323 21.3612C62.72 21.2292 62.8077 21.0972 62.9398 21.0538C63.2038 21.0972 63.4669 21.2292 63.731 21.3612L63.6877 21.4933L62.589 23.2078C62.3249 23.7793 62.589 24.3941 62.8531 24.8779C62.8964 24.9213 62.9408 25.01 62.9851 24.9656C62.9418 24.6139 62.8974 24.2621 62.9851 23.9103C63.0728 23.6029 63.2492 23.2511 63.4689 22.9871L64.3479 21.6687C64.4355 21.4489 64.4355 21.0972 64.2602 20.9218C63.865 20.5267 63.3369 20.438 62.9851 19.9108C62.2382 18.9442 62.1939 17.8012 62.1062 16.5705C62.1062 16.4828 62.0185 16.3508 61.8865 16.3064C61.7988 16.2631 61.7111 16.3941 61.6667 16.4385C61.447 17.2297 61.579 18.1963 61.7988 18.8999C61.9308 19.4714 62.1939 19.9985 62.4136 20.5267C62.457 20.6144 62.3693 20.7464 62.2816 20.7464C61.7101 20.7908 61.0952 20.7464 60.5237 20.6587C59.7769 20.5267 59.2054 19.9552 58.5895 19.5157C58.5018 19.4724 58.4575 19.5601 58.4141 19.6034C58.5895 20.438 59.5128 20.9218 59.8202 21.713C59.9956 22.3279 60.6114 22.8117 60.7435 23.5152C60.7435 23.6029 60.6558 23.7349 60.5681 23.7793C60.3484 23.8236 60.1286 23.6916 59.9532 23.8236C59.9089 24.1754 60.173 24.5705 59.9966 24.9223C59.7769 25.2297 59.5128 25.6258 59.1177 25.6258C58.3708 25.3618 57.6229 25.0543 56.8317 24.8346C56.2602 24.7902 55.733 24.8789 55.2059 24.9223C54.7221 24.8346 54.3703 24.3951 53.9752 24.0867C53.8431 24.0434 53.7554 24.0434 53.6677 24.1311C52.8322 24.9666 51.9099 25.8889 50.6349 25.8456C50.5472 25.8456 50.5028 25.7579 50.5028 25.6702V25.5825C51.0743 25.0987 51.7335 24.5715 51.9532 23.868C52.1286 23.2965 52.6568 22.857 52.8322 22.2855C52.8765 22.1978 52.7888 22.1535 52.7001 22.1091L52.5681 22.1968C51.9532 22.856 51.4694 23.5152 51.03 24.2631C50.5462 24.7469 49.887 25.01 49.1844 24.8346C49.0967 24.7902 49.0968 24.6592 49.1401 24.5705C51.7779 22.9437 52.0853 20.0872 52.7878 17.4938C53.315 15.7793 53.6667 13.9771 55.0295 12.571C57.0514 10.3737 59.6005 9.01099 61.7988 7.07676C62.1505 6.76934 62.458 6.50526 62.8974 6.46191C63.8167 6.50526 64.6512 6.90037 65.4425 7.51622ZM89.5292 26.1963C89.7489 26.5037 89.6612 26.9432 89.7489 27.295C89.7922 27.5591 90.1007 27.7344 89.9686 27.9985L89.0453 28.3059C88.87 28.3059 88.9577 28.0862 88.87 27.9985C88.7823 27.4714 88.6502 27.0752 88.4749 26.5481C88.4305 26.2407 88.7389 26.0209 88.9587 25.8446C89.1774 25.8446 89.3538 26.0643 89.5292 26.1963ZM87.3762 24.3064C87.728 24.6139 88.1674 24.8336 88.4305 25.1854C88.4749 25.3607 88.3428 25.5371 88.2551 25.6692C88.1231 25.8012 87.9477 25.8889 87.728 25.8889C87.5082 25.8889 87.3329 25.7569 87.2008 25.5815C86.9811 25.2741 86.6737 24.9666 86.586 24.6149C86.7603 24.3941 87.0678 24.0424 87.3762 24.3064ZM67.0249 23.9547C66.9816 24.3508 66.8496 24.7459 66.6732 25.141C66.5411 25.4051 66.1894 25.3164 65.9263 25.2731C65.6622 25.1854 65.2671 25.141 65.2227 24.7892C65.1784 24.4375 65.3548 24.13 65.5302 23.866C65.9253 23.8226 66.3657 23.9103 66.7609 23.8226C66.8929 23.8226 67.0249 23.867 67.0249 23.9547Z" fill="white"/>
</svg>
